<svg width="51" height="25" viewBox="0 0 51 25" fill="none" xmlns="http://www.w3.org/2000/svg">
<path d="M21.5728 8.68945H19.6086V16.3478H24.0092V14.5543H21.5728V8.68945Z" fill="#F4ECDF"/>
<path d="M27.4693 12.973C27.4455 13.0444 27.4137 13.1753 27.3661 13.3698C27.3185 13.5563 27.2749 13.7626 27.2193 14.0007C27.1558 13.711 27.1042 13.4769 27.0606 13.3023C27.0169 13.1356 26.9892 13.0206 26.9773 12.973L25.5368 8.69141H23.4576L26.4733 16.3458H27.9653L30.981 8.69141H28.9057L27.4693 12.973Z" fill="#F4ECDF"/>
<path d="M16.1643 12.4169C16.1643 12.9684 16.1524 13.3533 16.1286 13.5994C16.1008 13.8374 16.0532 14.0358 15.9936 14.1946C15.9143 14.389 15.7833 14.5358 15.5968 14.643C15.4103 14.7461 15.1842 14.8017 14.9143 14.8017C14.6485 14.8017 14.4183 14.7461 14.2318 14.643C14.0493 14.5358 13.9144 14.389 13.8429 14.1946C13.7755 14.0358 13.7318 13.8374 13.7041 13.5994C13.6803 13.3573 13.6684 12.9684 13.6684 12.4169V8.69482H11.7121V12.7423C11.7121 13.5795 11.7597 14.2025 11.8589 14.5914C11.9541 14.9961 12.1129 15.3374 12.3311 15.6231C12.5851 15.9286 12.9224 16.1627 13.3469 16.3215C13.7795 16.4802 14.2993 16.5556 14.9143 16.5556C15.5294 16.5556 16.0492 16.4802 16.4778 16.3215C16.9063 16.1627 17.2436 15.9326 17.4896 15.6231C17.7158 15.3414 17.8745 14.9961 17.9697 14.5914C18.0689 14.1985 18.1126 13.5795 18.1126 12.7423V8.69482H16.1603V12.4169H16.1643Z" fill="#F4ECDF"/>
<path d="M31.5684 16.3478H35.9769V14.6297H33.481V13.34H35.838V11.7012H33.481V10.368H35.9769V8.68945H31.5684V16.3478Z" fill="#F4ECDF"/>
<path d="M39.5045 10.2979H39.1116V10.3217H39.4846C39.9052 10.3217 40.2068 10.405 40.3814 10.5677C40.56 10.7383 40.6552 11.0161 40.6552 11.4129C40.6552 11.5795 40.6314 11.7264 40.5838 11.8494C40.6552 11.7145 40.6949 11.5518 40.6949 11.3534C40.6949 10.9685 40.5997 10.6986 40.4171 10.532C40.2425 10.3772 39.937 10.2979 39.5045 10.2979Z" fill="#F4ECDF"/>
<path d="M41.0203 13.2566C41.5441 13.1375 41.9488 12.8915 42.2186 12.5265C42.4924 12.1495 42.6313 11.6693 42.6313 11.0781C42.6313 10.6892 42.5599 10.3321 42.421 10.0067C42.2821 9.68134 42.0798 9.41151 41.8218 9.20914C41.5956 9.02661 41.3179 8.89566 41.0004 8.8163C40.683 8.74091 40.1235 8.69727 39.3259 8.69727H37.2784V16.3517H39.1116V13.3518L40.7623 16.3517H42.9845L41.0203 13.2566ZM40.5838 11.8519C40.5362 11.9789 40.4608 12.078 40.3655 12.1574C40.1751 12.3161 39.8695 12.3955 39.4569 12.3955H39.0997V10.3202H39.1116V10.2964H39.5045C39.937 10.2964 40.2386 10.3758 40.4171 10.5385C40.5997 10.7011 40.6989 10.9749 40.6989 11.3598C40.6989 11.5543 40.6592 11.717 40.5838 11.8519Z" fill="#F4ECDF"/>
<path d="M48.52 20.0179H48.3573V20.3314H48.52C48.6113 20.3314 48.6747 20.3195 48.7144 20.2957C48.7501 20.2719 48.77 20.2322 48.77 20.1766C48.77 20.1211 48.7501 20.0774 48.7104 20.0536C48.6708 20.0298 48.6073 20.0179 48.52 20.0179ZM48.5438 19.9306C48.6628 19.9306 48.7541 19.9505 48.8136 19.9901C48.8731 20.0298 48.9009 20.0893 48.9009 20.1727C48.9009 20.2322 48.8811 20.2838 48.8454 20.3274C48.8096 20.3711 48.7581 20.3949 48.6985 20.4028L48.889 20.8036H48.7422L48.5597 20.4227H48.3573V20.8036H48.2263V19.9346H48.5438V19.9306ZM49.1906 20.379C49.1906 20.2877 49.1747 20.2004 49.143 20.1171C49.1112 20.0338 49.0636 19.9624 49.0001 19.9028C48.9366 19.8393 48.8652 19.7917 48.7819 19.756C48.7025 19.7203 48.6152 19.7044 48.5239 19.7044C48.4367 19.7044 48.3533 19.7203 48.274 19.752C48.1946 19.7838 48.1232 19.8314 48.0597 19.8949C47.9962 19.9623 47.9446 20.0338 47.9089 20.1171C47.8732 20.2004 47.8573 20.2838 47.8573 20.375C47.8573 20.4623 47.8732 20.5496 47.9089 20.629C47.9446 20.7084 47.9922 20.7837 48.0557 20.8472C48.1192 20.9107 48.1906 20.9623 48.274 20.9941C48.3533 21.0298 48.4367 21.0456 48.5279 21.0456C48.6152 21.0456 48.7025 21.0298 48.7858 20.9941C48.8692 20.9583 48.9406 20.9107 49.0081 20.8472C49.0715 20.7877 49.1152 20.7163 49.1509 20.6369C49.1747 20.5576 49.1906 20.4742 49.1906 20.379ZM48.5239 19.6211C48.6271 19.6211 48.7263 19.6409 48.8176 19.6767C48.9089 19.7163 48.9882 19.7679 49.0596 19.8433C49.1271 19.9108 49.1826 19.9941 49.2184 20.0854C49.2541 20.1766 49.2739 20.2719 49.2739 20.375C49.2739 20.4782 49.2541 20.5774 49.2184 20.6647C49.1826 20.756 49.1271 20.8353 49.0596 20.9068C48.9882 20.9782 48.9049 21.0337 48.8136 21.0734C48.7224 21.1131 48.6271 21.1329 48.5279 21.1329C48.4287 21.1329 48.3335 21.1131 48.2422 21.0774C48.151 21.0377 48.0716 20.9821 48.0002 20.9107C47.9287 20.8393 47.8732 20.756 47.8375 20.6687C47.8018 20.5774 47.7819 20.4822 47.7819 20.379C47.7819 20.2798 47.8018 20.1846 47.8375 20.0933C47.8772 19.9981 47.9327 19.9147 48.0041 19.8433C48.0716 19.7719 48.151 19.7203 48.2422 19.6806C48.3255 19.6409 48.4208 19.6211 48.5239 19.6211Z" fill="#F4ECDF"/>
<path d="M25.7194 0.00763134C16.3667 -0.238389 0.918964 5.49944 0.510253 12.0904C0.403115 13.8403 1.15706 15.3839 1.77211 16.2807C12.2081 27.7762 38.076 26.8239 50.5 16.7251L48.6628 14.4871C48.0993 14.9355 47.5041 15.376 47.1232 15.6895C42.6631 19.3282 33.6238 21.6971 25.525 21.8082C16.9024 21.9233 7.44247 19.4671 7.61707 12.7253C7.74801 5.53914 17.7872 4.25745 22.0529 3.5432C28.0685 2.53134 35.3142 3.76936 40.1394 5.88434C42.171 6.80097 44.0717 7.91998 45.524 9.24928C45.9764 9.66196 46.3692 10.1024 46.7343 10.5548L49.5834 8.98738C48.3017 6.66605 46.9645 4.32888 45.6431 2.11073C45.4487 1.79725 45.3693 1.64644 45.0677 1.86469C44.4646 2.28927 43.5916 2.72179 43.1551 3.15431C42.8456 3.31303 42.7305 3.3448 42.4131 3.20195C39.2585 1.93613 33.1476 0.0750885 25.7194 0.00763134Z" fill="#F4ECDF"/>
</svg>
